<svg width="51" height="35" viewBox="0 0 51 35" fill="none" xmlns="http://www.w3.org/2000/svg">
<path d="M34.3295 0.633898C34.1681 0.445791 33.9681 0.292433 33.7423 0.183602C33.5166 0.0747703 33.2699 0.012853 33.0182 0.00179711C32.7664 -0.00925874 32.515 0.0307895 32.2801 0.119389C32.0452 0.207988 31.8318 0.343194 31.6536 0.516387C31.4754 0.689581 31.3363 0.896961 31.2451 1.12531C31.1539 1.35365 31.1127 1.59796 31.1241 1.84264C31.1355 2.08732 31.1992 2.32701 31.3112 2.54644C31.4231 2.76587 31.5809 2.96021 31.7745 3.11708L44.81 15.8011H1.72277C1.25764 15.8251 0.819695 16.0216 0.49918 16.3501C0.178666 16.6785 0 17.114 0 17.5667C0 18.0194 0.178666 18.4548 0.49918 18.7833C0.819695 19.1118 1.25764 19.3082 1.72277 19.3322H44.81L31.754 32.0014C31.4254 32.3359 31.2421 32.7805 31.2421 33.243C31.2421 33.7054 31.4254 34.1501 31.754 34.4846C31.9216 34.6479 32.1207 34.7776 32.3399 34.866C32.5592 34.9545 32.7942 35 33.0315 35C33.2689 35 33.5039 34.9545 33.7231 34.866C33.9423 34.7776 34.1415 34.6479 34.309 34.4846L50.4565 18.7909C50.6284 18.6301 50.7651 18.4373 50.8585 18.2239C50.9519 18.0106 51 17.7811 51 17.5493C51 17.3175 50.9519 17.088 50.8585 16.8747C50.7651 16.6613 50.6284 16.4685 50.4565 16.3077L34.3295 0.633898Z" fill="black"/>
</svg>
