<svg width="40" height="28" viewBox="0 0 40 28" fill="none" xmlns="http://www.w3.org/2000/svg">
<path d="M4.15322 21.2978C5.56992 20.9015 7.03515 20.7034 8.50732 20.7104C12.6323 20.7104 16.2503 22.232 18.285 24.5142C18.4343 24.6947 18.6809 24.7619 18.8996 24.6805C19.1218 24.5991 19.2677 24.3904 19.2711 24.1498V5.3926C19.2746 5.28645 19.2503 5.18383 19.2017 5.09183C17.5142 2.10185 13.3615 3.90282e-05 8.5351 3.90282e-05C6.94827 -0.00349917 5.36846 0.23357 3.84767 0.697105C3.61156 0.771412 3.44836 0.997871 3.44836 1.25264V20.7526C3.45184 20.9295 3.53517 21.0923 3.67058 21.1984C3.806 21.3046 3.98655 21.3438 4.15322 21.2978Z" fill="#121212"/>
<path d="M21.7254 24.5144C23.7532 22.2322 27.3782 20.7106 31.5031 20.7106C32.9718 20.7036 34.4372 20.9017 35.8572 21.298C36.0274 21.3511 36.2114 21.3228 36.3572 21.2131C36.4996 21.1069 36.5864 20.9371 36.5864 20.7531V1.25316C36.5899 0.998393 36.4267 0.771933 36.1871 0.697627C34.6663 0.234093 33.0899 -0.00298392 31.5031 0.000557905C26.6594 0.000557905 22.5068 2.10237 20.8365 5.09236C20.7845 5.18435 20.7602 5.28697 20.7636 5.39312V24.1503C20.7775 24.3767 20.9199 24.5714 21.1282 24.6492C21.3366 24.7306 21.5692 24.6737 21.7254 24.5144Z" fill="#121212"/>
<path d="M38.7982 1.99626H38.0447V20.7534C38.0413 21.4045 37.7392 22.0131 37.2288 22.4023C36.7218 22.7915 36.0621 22.9154 35.4475 22.7385C34.1594 22.3775 32.8295 22.1971 31.4927 22.2042C27.9372 22.2042 24.6316 23.4709 22.8157 25.5197H22.8192C22.4303 25.9585 21.8782 26.2132 21.2984 26.2168C20.8262 26.2238 20.3678 26.0646 19.9998 25.7639C19.6422 26.0788 19.1839 26.2557 18.7117 26.2628C18.1283 26.2592 17.5728 26.008 17.1804 25.5657C15.4026 23.517 12.0416 22.2502 8.50339 22.2502H8.50686C7.17007 22.2431 5.84022 22.42 4.55205 22.7845C3.85761 22.9897 3.10762 22.7986 2.58682 22.2855C2.18057 21.8999 1.95488 21.362 1.95488 20.7994V1.99607H1.19794H1.20141C0.538228 1.99607 0 2.54099 0 3.21687V26.7686C0 27.4445 0.534717 27.9965 1.20141 28H38.802H38.7986C39.1215 28 39.427 27.8726 39.6527 27.6391C39.8784 27.4091 40.0034 27.0942 39.9999 26.7686V3.21688C40.0034 2.89134 39.8749 2.57998 39.6527 2.34997C39.427 2.11997 39.1177 1.99272 38.7982 1.99626Z" fill="#121212"/>
</svg>
