<svg width="36" height="36" viewBox="0 0 36 36" fill="none" xmlns="http://www.w3.org/2000/svg">
<path d="M14.5714 0L13.7545 4.5C12.9603 4.74964 12.1912 5.07176 11.4643 5.45092L7.6875 2.8527L2.83929 7.70092L5.45091 11.4643C5.07013 12.1933 4.75041 12.9577 4.5 13.7545L0 14.5714V21.4286L4.5 22.2455C4.75106 23.0443 5.08226 23.8051 5.46429 24.5357L2.83929 28.2991L7.6875 33.1473L11.4509 30.5491C12.181 30.9307 12.9564 31.2492 13.7545 31.5L14.5714 36H21.4286L22.2455 31.5C23.0422 31.2496 23.8067 30.9299 24.5357 30.5491L28.2991 33.1473L33.1473 28.2991L30.5357 24.5357C30.9149 23.81 31.2366 23.0519 31.4866 22.259L36 21.4286V14.5714L31.4866 13.7545C31.2378 12.963 30.9265 12.2023 30.5491 11.4777L33.1473 7.70092L28.2991 2.8527L24.5357 5.45092C23.8067 5.07018 23.0423 4.75046 22.2455 4.5L21.4286 0H14.5714ZM18 10.2857C22.2605 10.2857 25.7143 13.7395 25.7143 18C25.7143 22.2605 22.2605 25.7143 18 25.7143C13.7395 25.7143 10.2857 22.2605 10.2857 18C10.2857 13.7395 13.7395 10.2857 18 10.2857Z" fill="#121212"/>
</svg>
