<svg width="38" height="54" viewBox="0 0 38 54" fill="none" xmlns="http://www.w3.org/2000/svg">
<path fill-rule="evenodd" clip-rule="evenodd" d="M17.1 46.2062V52.0714C17.1 53.137 17.9502 54 19 54C20.0498 54 20.9 53.137 20.9 52.0714V46.2062C30.5879 45.3914 38 38.439 38 30.8574C38 29.7919 37.1498 28.9289 36.1 28.9289C35.0502 28.9289 34.2 29.7919 34.2 30.8574C34.2 37.159 27.2791 42.4287 19 42.4287C10.7209 42.4287 3.8 37.159 3.8 30.8574C3.8 29.7919 2.94977 28.9289 1.9 28.9289C0.850227 28.9289 0 29.7919 0 30.8574C0 38.439 7.41213 45.3916 17.1 46.2062ZM7.6 10.5376V27.9643C7.6 33.7596 12.6564 38.5716 19 38.5716C25.3436 38.5716 30.4 33.7599 30.4 27.9643V10.6073C30.4 4.81206 25.3436 0 19 0C12.6798 0 7.64013 4.7738 7.6 10.5376ZM11.4 10.5617C11.4285 6.7986 14.8746 3.85776 19 3.85776C23.142 3.85776 26.6 6.82291 26.6 10.608V27.965C26.6 31.7497 23.142 34.7152 19 34.7152C14.858 34.7152 11.4 31.75 11.4 27.965V10.5617Z" fill="#121212"/>
</svg>
