<svg width="57" height="40" viewBox="0 0 57 40" fill="none" xmlns="http://www.w3.org/2000/svg">
<path d="M5.91824 30.4255C7.93703 29.8593 10.025 29.5762 12.1228 29.5863C18.0009 29.5863 23.1566 31.76 26.0561 35.0203C26.2688 35.2781 26.6201 35.3742 26.9318 35.2579C27.2485 35.1417 27.4563 34.8434 27.4613 34.4997V7.70372C27.4662 7.55207 27.4316 7.40548 27.3623 7.27405C24.9577 3.00264 19.04 5.57546e-05 12.1624 5.57546e-05C9.90118 -0.00499882 7.64995 0.333672 5.48283 0.995865C5.14638 1.10202 4.91382 1.42553 4.91382 1.78948V29.6466C4.91877 29.8993 5.03752 30.1318 5.23048 30.2835C5.42345 30.4351 5.68074 30.4912 5.91824 30.4255Z" fill="#121212"/>
<path d="M30.9587 35.0207C33.8482 31.7603 39.0139 29.5867 44.8919 29.5867C46.9848 29.5766 49.0729 29.8597 51.0965 30.4258C51.339 30.5016 51.6012 30.4612 51.809 30.3045C52.0119 30.1528 52.1356 29.9102 52.1356 29.6474V1.7902C52.1405 1.42624 51.908 1.10273 51.5666 0.996575C49.3994 0.33438 47.153 -0.00430199 44.8919 0.000757771C37.9896 0.000757771 32.0721 3.00336 29.692 7.27478C29.6178 7.40621 29.5832 7.5528 29.5881 7.70445V34.5005C29.6079 34.824 29.8108 35.102 30.1076 35.2132C30.4045 35.3295 30.736 35.2482 30.9587 35.0207Z" fill="#121212"/>
<path d="M55.2875 2.85176H54.2138V29.6477C54.2088 30.5778 53.7783 31.4472 53.051 32.0033C52.3286 32.5593 51.3885 32.7362 50.5128 32.4835C48.6771 31.9679 46.7821 31.7101 44.8771 31.7202C39.8105 31.7202 35.1001 33.5298 32.5124 36.4567H32.5174C31.9632 37.0835 31.1765 37.4474 30.3502 37.4525C29.6773 37.4626 29.0242 37.2351 28.4998 36.8055C27.9901 37.2554 27.337 37.5081 26.6641 37.5182C25.8329 37.5132 25.0413 37.1543 24.4821 36.5224C21.9488 33.5956 17.1593 31.7859 12.1173 31.7859H12.1223C10.2174 31.7758 8.32231 32.0286 6.48667 32.5492C5.4971 32.8424 4.42835 32.5694 3.68622 31.8365C3.10732 31.2855 2.7857 30.5172 2.7857 29.7134V2.85148H1.70707H1.71201C0.766975 2.85148 0 3.62993 0 4.59548V38.2409C0 39.2063 0.761971 39.9949 1.71201 40H55.2929H55.2879C55.7481 40 56.1835 39.818 56.5051 39.4844C56.8267 39.1558 57.0049 38.7059 56.9999 38.2409V4.5955C57.0048 4.13045 56.8218 3.68563 56.5051 3.35706C56.1835 3.02849 55.7427 2.8467 55.2875 2.85176Z" fill="#121212"/>
<rect x="24.6655" y="14.5455" width="7.98" height="13.8182" fill="#121212"/>
<path d="M28.6556 10.1818C22.8701 10.1818 18.1365 14.9273 18.1365 20.7273C18.1365 26.5273 22.8701 31.2727 28.6556 31.2727C34.4411 31.2727 39.1747 26.5273 39.1747 20.7273C39.1747 14.9273 34.4411 10.1818 28.6556 10.1818ZM33.9151 21.7818H29.7075V26C29.7075 27.3709 27.6037 27.3709 27.6037 26V21.7818H23.396C22.0286 21.7818 22.0286 19.6727 23.396 19.6727H27.6037V15.4546C27.6037 14.0837 29.7075 14.0837 29.7075 15.4546V19.6727H33.9151C35.2826 19.6727 35.2826 21.7818 33.9151 21.7818Z" fill="white"/>
</svg>
