<svg width="49" height="49" viewBox="0 0 49 49" fill="none" xmlns="http://www.w3.org/2000/svg">
<path d="M47.4713 1.55181C46.9976 1.06576 46.3921 0.728736 45.7294 0.582169C45.0667 0.435602 44.3755 0.485883 43.741 0.726832L2.76055 15.9501C2.07959 16.2147 1.49704 16.6833 1.09261 17.2916C0.688188 17.9 0.481655 18.6185 0.50128 19.3488C0.520904 20.0791 0.765729 20.7854 1.20225 21.3712C1.63876 21.957 2.24564 22.3936 2.93983 22.6212C2.93983 22.6212 20.8083 28.2369 20.8174 28.2451L26.3793 46.0609C26.6071 46.7551 27.0438 47.3619 27.6298 47.7984C28.2158 48.2348 28.9223 48.4794 29.6527 48.4988C30.383 48.5181 31.1015 48.3113 31.7098 47.9065C32.3181 47.5018 32.7864 46.9189 33.0506 46.2377L48.2743 5.26003C48.5125 4.63035 48.5634 3.9452 48.421 3.28722C48.2785 2.62925 47.9487 2.02655 47.4713 1.55181ZM41.2698 5.30566L21.6935 24.881L3.8947 19.3727L41.2698 5.30566ZM29.6529 45.039L24.1194 27.3069L43.6954 7.7312L29.6529 45.039Z" fill="black"/>
</svg>
